<?xml version="1.0" encoding="UTF-8"?>
<svg version="1.1" xmlns="http://www.w3.org/2000/svg" width="128" height="128">
<path d="M0 0 C0.66 0 1.32 0 2 0 C0.30042057 24.13503812 -2.09030465 48.19096562 -4.625 72.25 C-4.70410236 73.00119236 -4.78320473 73.75238472 -4.86470413 74.52634048 C-6.85757167 93.44107399 -6.85757167 93.44107399 -7.66729736 100.85656738 C-7.87716915 102.83947266 -8.07221183 104.82405604 -8.24627686 106.8104248 C-8.79207859 112.79207859 -8.79207859 112.79207859 -11 115 C-11.32162109 114.37657715 -11.64324219 113.7531543 -11.97460938 113.11083984 C-13.47997586 110.19727924 -14.98942868 107.28586554 -16.5 104.375 C-17.04591797 103.32135254 -17.59183594 102.26770508 -18.15429688 101.18212891 C-21.12496534 95.48134964 -24.19243494 89.88544716 -27.5 84.375 C-33.47614693 74.0503054 -37.99729506 61.1847052 -35.125 49.1875 C-29.83652417 34.0638949 -17.01053984 20.51649161 -6.9765625 8.390625 C-5.77094769 6.93245057 -4.57547174 5.46571565 -3.3984375 3.984375 C-2.30873626 2.62065532 -1.16190887 1.30274631 0 0 Z " fill="#417FF7" transform="translate(114,7)"/>
<path d="M0 0 C-2.32385414 2.67504753 -4.66083298 5.33833753 -7 8 C-7.721875 8.82886719 -8.44375 9.65773438 -9.1875 10.51171875 C-13.18309315 15.04144501 -17.21661557 19.26442025 -21.83984375 23.15234375 C-24.44525587 25.38084272 -26.93106098 27.72338931 -29.4375 30.0625 C-40.55688874 40.15288454 -48.51296797 43.40718383 -63.4140625 42.77734375 C-69.89899257 41.97710443 -75.94347433 39.33995859 -82 37 C-83.22074219 36.53005615 -84.44148438 36.0601123 -85.69921875 35.57592773 C-89.36770414 34.14802615 -93.02871124 32.70255284 -96.6875 31.25 C-99.14930371 30.27493389 -101.61170479 29.30139798 -104.07421875 28.328125 C-105.67656372 27.69245605 -105.67656372 27.69245605 -107.3112793 27.04394531 C-109.18959097 26.31465623 -111.08847559 25.6371748 -113 25 C-113 24.34 -113 23.68 -113 23 C-86.48896987 16.77601654 -59.92526128 10.82237211 -33.28183746 5.19356918 C-31.18420393 4.74930191 -29.08723381 4.30201949 -26.99041748 3.85391235 C-23.05159878 3.01272442 -19.11005028 2.18513897 -15.16796875 1.359375 C-13.9794783 1.10473984 -12.79098785 0.85010468 -11.56648254 0.5877533 C-10.47873032 0.36253494 -9.39097809 0.13731659 -8.27026367 -0.09472656 C-7.32028 -0.29471252 -6.37029633 -0.49469849 -5.39152527 -0.70074463 C-3 -1 -3 -1 0 0 Z " fill="#4D63D7" transform="translate(113,6)"/>
<path d="M0 0 C2.9719385 1.12451727 5.33440687 2.22293791 8 4 C12.01458829 4.54744386 14.35802953 3.97974889 17.75 1.9375 C18.8225 1.298125 19.895 0.65875 21 0 C21.66 0.33 22.32 0.66 23 1 C22.62746094 1.50789063 22.25492188 2.01578125 21.87109375 2.5390625 C18.80116499 6.91069922 18.80116499 6.91069922 18 12.0625 C19.16359731 15.4805671 20.49076066 18.71904492 22 22 C20.9790625 21.566875 20.9790625 21.566875 19.9375 21.125 C18.968125 20.75375 17.99875 20.3825 17 20 C15.906875 19.54625 14.81375 19.0925 13.6875 18.625 C9.20668629 17.86554005 7.48848309 18.80644029 3.69921875 21.0546875 C2 22 2 22 0 22 C1.12451727 19.0280615 2.22293791 16.66559313 4 14 C3.72995879 9.13925821 2.65157308 6.03500252 0 2 C0 1.34 0 0.68 0 0 Z " fill="#3C73E1" transform="translate(30,54)"/>
<path d="M0 0 C0.556875 0.144375 1.11375 0.28875 1.6875 0.4375 C2.8321875 0.7159375 2.8321875 0.7159375 4 1 C4.78375 1.226875 5.5675 1.45375 6.375 1.6875 C9.69629068 2.08289175 11.92269787 1.21660782 15 0 C14.46375 1.010625 13.9275 2.02125 13.375 3.0625 C11.50025375 7.3351775 12.3508172 9.74684436 14 14 C13.484375 13.649375 12.96875 13.29875 12.4375 12.9375 C9.04966491 11.6344865 6.5231219 12.35943238 3 13 C2.01 13 1.02 13 0 13 C0.53625 12.29875 1.0725 11.5975 1.625 10.875 C3.35712395 8.02468167 3.35712395 8.02468167 2.25 4.8125 C1.53079647 3.19429205 0.79194074 1.58388148 0 0 Z " fill="#386CD3" transform="translate(59,80)"/>
<path d="M0 0 C0.7425 0.185625 1.485 0.37125 2.25 0.5625 C4.94990963 0.99203108 6.44631077 0.85122974 9 0 C8.814375 0.763125 8.62875 1.52625 8.4375 2.3125 C7.77180827 5.08967375 7.77180827 5.08967375 9 8 C6.03 8 3.06 8 0 8 C0.185625 7.236875 0.37125 6.47375 0.5625 5.6875 C1.22819173 2.91032625 1.22819173 2.91032625 0 0 Z " fill="#305DB6" transform="translate(34,96)"/>
<path d="M0 0 C-0.56002416 3.53659092 -1.67774324 4.95559692 -4.4375 7.1875 C-5.36369141 7.95126953 -5.36369141 7.95126953 -6.30859375 8.73046875 C-8 10 -8 10 -10 11 C-8.64763423 8.06120516 -7.10057341 5.70767089 -5 3.25 C-4.484375 2.63640625 -3.96875 2.0228125 -3.4375 1.390625 C-2 0 -2 0 0 0 Z " fill="#2E58AC" transform="translate(116,7)"/>
<path d="" fill="#11203F" transform="translate(0,0)"/>
</svg>
